# Blender v2.80 (sub 75) OBJ File: 'flat_cylinder_quadrant.blend'
# www.blender.org
mtllib flat_cylinder_quadrant.mtl
o Cylinder
v 0.000000 -0.010000 -1.000000
v 0.000000 0.010000 -1.000000
v 0.195090 -0.010000 -0.980785
v 0.195090 0.010000 -0.980785
v 0.382683 -0.010000 -0.923880
v 0.382683 0.010000 -0.923880
v 0.555570 -0.010000 -0.831470
v 0.555570 0.010000 -0.831470
v 0.707107 -0.010000 -0.707107
v 0.707107 0.010000 -0.707107
v 0.831470 -0.010000 -0.555570
v 0.831470 0.010000 -0.555570
v 0.923880 -0.010000 -0.382683
v 0.923880 0.010000 -0.382683
v 0.980785 -0.010000 -0.195090
v 0.980785 0.010000 -0.195090
v 1.000000 0.010000 -0.000000
v 1.000000 -0.010000 0.000000
v 0.000000 0.010000 0.000000
v 0.000000 -0.010000 0.000000
vn 0.0980 0.0000 -0.9952
vn 0.2903 0.0000 -0.9569
vn 0.4714 0.0000 -0.8819
vn 0.6344 0.0000 -0.7730
vn 0.7730 0.0000 -0.6344
vn 0.8819 0.0000 -0.4714
vn 0.9569 0.0000 -0.2903
vn 0.9952 -0.0000 -0.0980
vn 0.0000 -1.0000 0.0000
vn 0.0000 1.0000 -0.0000
vn 0.0000 0.0000 1.0000
vn -1.0000 0.0000 0.0000
usemtl None
s off
f 1//1 2//1 4//1 3//1
f 3//2 4//2 6//2 5//2
f 5//3 6//3 8//3 7//3
f 7//4 8//4 10//4 9//4
f 9//5 10//5 12//5 11//5
f 11//6 12//6 14//6 13//6
f 13//7 14//7 16//7 15//7
f 15//8 16//8 17//8 18//8
f 1//9 3//9 5//9 7//9 9//9 11//9 13//9 15//9 18//9 20//9
f 4//10 2//10 19//10 17//10 16//10 14//10 12//10 10//10 8//10 6//10
f 19//11 20//11 18//11 17//11
f 2//12 1//12 20//12 19//12
